<?xml version="1.0" encoding="UTF-8"?>
<svg preserveAspectRatio="xMidYMid slice" xmlns="http://www.w3.org/2000/svg" width="144px" height="47px" viewBox="0 0 149 49" fill="none">
  <rect width="149" height="49" fill="#080A80"/>
  <path d="M51.7455 10.7H42V38.1762H51.7455V10.7Z" fill="white"/>
  <path d="M99 28.7L108 10.7L80 10.7L80 19.7L90.134 19.7L80 38.18L84.4925 38.18L108 38.18L108 28.7L99 28.7Z" fill="white"/>
  <path d="M29 28.7L38 10.7L9.99999 10.7L9.99999 19.7L20.134 19.7L9.99999 38.18L14.4925 38.18L38 38.18L38 28.7L29 28.7Z" fill="white"/>
  <path d="M55 38.1762H75.8629V28.7H64.5799V25.2476H73.7577V23.4619H64.5799V19.7H75.8629V10.7H55V38.1762Z" fill="white"/>
  <path d="M124.5 10C133 10 139 16 139 24.5C139 33 133 39 124.5 39C116 39 110 33 110 24.5C110 16 116.492 10 124.5 10ZM124.5 21.5996C122.898 21.5996 121.6 22.8984 121.6 24.5C121.6 26.1016 122.898 27.4004 124.5 27.4004C126.102 27.4004 127.4 26.1016 127.4 24.5C127.4 22.8984 126.102 21.5996 124.5 21.5996Z" fill="white"/>
</svg>